<?xml version="1.0" encoding="utf-8"?>
<!-- Generator: Adobe Illustrator 18.1.1, SVG Export Plug-In . SVG Version: 6.00 Build 0)  -->
<svg version="1.1" id="Layer_1" xmlns="http://www.w3.org/2000/svg" xmlns:xlink="http://www.w3.org/1999/xlink" x="0px" y="0px"
	 viewBox="0 0 128 128" enable-background="new 0 0 128 128" xml:space="preserve">
<path id="bottom" d="M106.2,113H21.9c-3.6,0-6.6-4.5-6.6-9.5s2.9-9.5,6.6-9.5h84.3c3.6,0,6.6,4.5,6.6,9.5S109.8,113,106.2,113z"/>
<path id="middle" d="M106.2,73H21.9c-3.6,0-6.6-4-6.6-9s2.9-9,6.6-9h84.3c3.6,0,6.6,4,6.6,9S109.8,73,106.2,73z"/>
<path id="top" d="M106.2,34H21.9c-3.6,0-6.6-4.5-6.6-9.5s2.9-9.5,6.6-9.5h84.3c3.6,0,6.6,4.5,6.6,9.5S109.8,34,106.2,34z"/>
</svg>
